<svg xmlns="http://www.w3.org/2000/svg" height="497" width="511"><path d="M301.446 366.844c56.49-6.672 116.573-27.211 116.573-124.783 0-27.732-9.766-50.333-25.672-67.796 2.566-6.67 10.775-31.836-3.096-66.752 0 0-20.54-6.679-68.804 25.67-20.54-5.642-43.133-9.243-64.187-9.243-21.576 0-44.176 3.601-64.204 9.244-48.786-32.35-69.326-25.67-69.326-25.67-13.862 34.915-5.643 60.081-3.078 66.751-15.923 17.462-25.68 40.064-25.68 67.796 0 97.572 60.083 118.111 116.573 124.783-7.184 6.173-13.862 17.974-16.428 34.41-14.384 6.158-51.873 17.975-74.465-21.054 0 0-13.357-24.131-38.515-25.67 0 0-25.167-.513-2.053 15.391 0 0 16.94 7.714 28.245 36.977 0 0 15.401 48.794 86.266 33.383l-1.148 51.075s-1.15 5.868-7.187 7.33c-11.82 9.356-19.099 8.347-14.695 12.357 8.278 7.54 49.446 11.272 86.372 11.318 14.389.018 61.906-2.116 86.684-15.554 5.274-2.86-9.186-3.66-14.656-8.087 0 0-3.402-2.562-5.147-3.733-.99-.665-2.44-2.61-2.44-2.61l-2.984-78.792c.001-23.637-7.713-39.029-16.948-46.741z" clip-rule="evenodd" fill="#fff" fill-rule="evenodd"/></svg>