<svg xmlns="http://www.w3.org/2000/svg" width="512" height="512" viewBox="0 0 430.117 430.117"><path d="M370.416 247.36v115.98h-67.239V255.128c0-27.184-9.725-45.736-34.063-45.736-18.58 0-29.636 12.502-34.5 24.597-1.774 4.323-2.23 10.341-2.23 16.394V363.34h-67.262s.906-183.279 0-202.268h67.255v28.67c-.136.215-.313.446-.442.654h.442v-.653c8.936-13.763 24.893-33.423 60.612-33.423 44.253 0 77.427 28.91 77.427 91.038zM94.764 63.57c-23.01 0-38.06 15.093-38.06 34.94 0 19.415 14.615 34.966 37.168 34.966h.449c23.455 0 38.043-15.548 38.043-34.966-.442-19.847-14.588-34.94-37.6-34.94zM60.7 363.34h67.235V161.074H60.7v202.268z" fill="#fff"/></svg>