<svg xmlns="http://www.w3.org/2000/svg" width="28" height="28"><path style="fill:#fff;fill-opacity:1;stroke:none;stroke-width:.331115" d="M23.152 17.364c-.195-.01-.21-.018-.37-.169-.188-.177-.296-.23-.601-.294a3.02 3.02 0 0 1-.264-.065c-.071-.027-.122-.153-.124-.31-.004-.288-.038-.38-.162-.438-.205-.097-.643-.136-1.023-.092a1.937 1.937 0 0 1-.35.023 1.596 1.596 0 0 1-.033-.286c-.016-.253-.012-.277.057-.35a.813.813 0 0 1 .255-.144c.309-.113.536-.359.923-.999l.177-.293v-.804c0-.926.024-.832-.357-1.401-.296-.442-.566-.798-.77-1.014a.991.991 0 0 1-.2-.284c-.076-.266-.01-1.336.113-1.81.06-.229.17-.458.242-.5.04-.025.236.028.797.213l.745.246.182.273c.1.15.278.426.396.612.119.187.225.34.237.34.049 0 .097-.081.097-.162a.908.908 0 0 0-.106-.286c-.132-.245-.83-1.383-.883-1.437-.02-.022-.364-.11-.762-.197a13.54 13.54 0 0 1-.808-.192c-.072-.03-.116-.015-.354.118l-.272.152.001.284c0 .156.013.469.028.694a4.1 4.1 0 0 1 .016.422c-.006.006-.096-.064-.199-.158a2.452 2.452 0 0 0-.735-.46c-.177-.072-.228-.078-.498-.064-.514.028-1.1.258-1.436.565-.328.3-.471.824-.452 1.659.006.282.007.512.001.512-.005 0-.084-.055-.174-.123a1.324 1.324 0 0 0-.322-.174c-.28-.089-1.469-.276-1.862-.293-.368-.016-.385-.014-.623.08-.134.055-.361.155-.504.223-.143.068-.264.12-.268.116a1.079 1.079 0 0 1 .087-.194c.188-.365.239-.781.142-1.166-.076-.3-.293-.7-.489-.899-.293-.298-.656-.427-1.293-.46-.594-.03-1.06.11-1.386.415-.214.2-.325.383-.478.79-.126.332-.13.355-.115.629.019.34.107.602.327.967.206.34.6.761.802.854.086.039.156.078.156.087a.771.771 0 0 1-.171.105c-.435.227-.697.61-.853 1.247l-.057.23-.24.163c-.31.21-.603.501-.73.727-.055.098-.114.178-.13.178-.06 0-.62-.9-.701-1.128-.123-.342-.156-.597-.102-.777.095-.317.485-.785.927-1.115.127-.094.239-.191.248-.215a.622.622 0 0 0-.02-.21c-.045-.209-.046-1.334-.002-1.61.032-.204.224-.796.537-1.663l.165-.457-.232-.222c-.305-.292-.415-.344-.669-.315-.263.03-.843.18-1.163.302-.412.158-1.141.52-1.182.589-.058.097-.335 1.018-.349 1.159-.007.078.005.15.034.187.043.058.056.04.204-.269.087-.182.182-.415.212-.519.044-.154.087-.22.235-.366.314-.309.893-.531 1.405-.54.243-.004.265.002.597.16.19.09.35.17.357.177.007.007-.094.337-.224.733-.13.396-.246.799-.256.894-.088.845-.218 1.828-.25 1.906-.023.054-.141.216-.264.36-.23.273-.376.515-.46.763-.078.235-.144.6-.15.835-.005.2.008.252.139.552.079.182.244.515.365.74.122.224.238.48.259.567a.48.48 0 0 0 .069.18c.02.013.012.116-.022.286-.085.43-.113.8-.08 1.06.016.131.026.24.022.243-.121.09-1.054.152-1.145.077a1.63 1.63 0 0 1-.18-.264c-.176-.303-.28-.397-.44-.397-.069 0-.312.044-.54.098-.495.116-.68.124-.88.036-.195-.087-.232-.168-.326-.726-.159-.932-.15-1.044.163-2.05.234-.755.419-1.4.455-1.588.018-.098.019-.264.001-.434-.042-.407.014-2.814.07-3.017a4.73 4.73 0 0 1 .219-.525c.174-.366.175-.367.423-.541.299-.21 2.63-1.425 2.79-1.454.183-.033.417.037.698.207.144.087.36.208.481.27.191.096.24.108.379.094.21-.023.648-.17 1.07-.358l.342-.153.27-.36c.147-.197.395-.484.55-.637.327-.326.833-.716.98-.756.178-.048.895-.093 1.502-.093h.587l.489.491c.66.664.674.674 1.242.832.638.177.859.275 1.355.601.355.233.456.317.61.512l.185.233.157-.093c.204-.121.397-.179.527-.158a.92.92 0 0 0 .34-.056c.324-.1.756-.1 1.32.001.318.058.436.092.481.141.033.036.326.455.651.933.325.478.657.956.737 1.062l.145.193.085 1.4c.126 2.079.135 2.143.346 2.571.194.393.352 1.019.415 1.639l.045.456-.14.765c-.077.42-.152.82-.166.89-.023.11-.058.148-.278.307l-.25.18-.269-.005c-.147-.003-.36-.01-.472-.017zm-9.988-9.278c.05-.056.043-.068-.193-.274-.135-.118-.345-.31-.466-.426-.362-.346-.503-.44-.666-.44-.089 0-.2.031-.301.082-.198.1-.201.096.289.37.2.11.448.256.552.323.316.202.687.425.71.425.012 0 .045-.027.075-.06zm3.524-.285c.123-.174.155-.198.48-.35.192-.09.497-.212.678-.272.445-.145.426-.13.342-.28-.091-.164-.157-.17-.51-.045-.692.244-1.293.582-1.422.8l-.054.092.13.12c.07.067.15.122.177.122.026 0 .106-.084.179-.187z" transform="translate(-.442 -1.766)"/><path style="fill:#fff;stroke:none;stroke-width:.331115" d="M10.006 10.923c-.038-.06-.1-.198-.137-.307-.057-.167-.066-.25-.054-.519.012-.285.026-.344.125-.554.127-.266.43-.613.646-.74.195-.114.429-.168.737-.168.624 0 1.107.26 1.313.71.142.312.214.905.134 1.11-.035.087-.036.087-.14-.138-.2-.438-.507-.67-.916-.698-.739-.048-1.376.458-1.531 1.216-.023.108-.056.197-.074.197-.018 0-.064-.05-.103-.109z" transform="translate(-.442 -1.766)"/><path style="fill:#fff;stroke:none;stroke-width:.331115" d="M10.831 11.57c-.127-.052-.26-.243-.298-.431-.095-.459.201-.99.678-1.216.234-.11.554-.124.758-.03.283.127.488.446.51.791.011.17.007.195-.024.143a.8.8 0 0 0-1.058-.323.897.897 0 0 0-.444 1.009c.025.093-.001.105-.122.056zM19.599 10.946c-.084-.352-.209-.608-.396-.811a1.394 1.394 0 0 0-1.525-.364c-.142.054-.238.122-.386.272-.108.11-.206.2-.218.2-.032 0 .015-.41.067-.587.097-.328.344-.56.79-.744.235-.096.277-.104.615-.104.349 0 .37.004.574.106.57.287.958 1.024.855 1.627-.037.214-.15.489-.25.61l-.06.073z" transform="translate(-.442 -1.766)"/><path style="fill:#fff;stroke:none;stroke-width:.331115" d="M18.514 11.714c0-.024.023-.063.052-.087.083-.068.137-.232.137-.413a.778.778 0 0 0-.28-.558c-.37-.264-.705-.248-1.068.05-.076.061-.146.104-.156.094-.01-.01.006-.087.037-.17.07-.186.348-.469.568-.577a.912.912 0 0 1 .779.01c.214.105.488.37.586.566.2.401-.033.871-.537 1.08-.098.041-.118.042-.118.005z" transform="translate(-.442 -1.766)"/><path style="fill:#fff;stroke:none;stroke-width:.331115" d="M18.197 11.1c-.139-.112 0-.311.158-.226.077.04.085.164.015.235-.064.063-.086.062-.173-.009zM19.837 14.686a4.266 4.266 0 0 0-.303-.411c-.13-.145-.137-.165-.14-.35-.004-.42-.02-.462-.257-.64-.335-.251-.849-.548-1.066-.616a1.668 1.668 0 0 1-.302-.125c-.133-.083-.44-.418-.396-.433.02-.006.188.032.375.085.483.136.568.144.84.084.352-.078 1.016-.416 1.192-.606.351-.38.494-.516.542-.516.03 0 .081.059.12.134.037.074.266.453.509.842l.44.708-.033.354c-.042.437-.144.719-.424 1.164l-.199.315-.33.133a3.817 3.817 0 0 1-.365.134c-.02 0-.11-.115-.203-.256z" transform="translate(-.442 -1.766)"/><path style="fill:#fff;stroke:none;stroke-width:.331115" d="M14.826 22.324c-.188-.04-.455-.128-1.069-.354-.451-.166-.535-.209-.683-.344a1.74 1.74 0 0 0-.249-.195c-.13-.068-.729-.92-.944-1.347a1.709 1.709 0 0 1-.145-.4l-.025-.163.282-.388c.155-.214.337-.455.405-.536.117-.14.151-.215.099-.215-.047 0-.41.233-.697.45l-.294.22-.157-.154c-.36-.352-.672-.883-.835-1.418-.075-.245-.087-.345-.095-.775-.008-.43-.018-.508-.073-.599-.195-.321-.132-.871.15-1.308.067-.104.274-.347.458-.54.2-.21.336-.378.336-.416 0-.08.079-.12.506-.27.636-.221 1.506-.411 2.059-.449.202-.014.268-.028.243-.053-.023-.024-.272-.035-.75-.035-.563 0-.777.012-.995.057-.72.146-1.4.508-1.888 1.006a2.82 2.82 0 0 1-.259.246c-.033 0-.083-.24-.102-.489-.035-.459.097-.871.36-1.128.243-.236.298-.258 1.142-.434.457-.096.676-.202.953-.464.287-.27.464-.392.792-.545.46-.214.684-.227 1.532-.092.722.115 1.38.313 1.682.507.114.073.248.22.486.537.188.248.38.47.447.512.064.042.278.143.474.225.409.17.685.344.785.494.159.237.202.672.098.98-.048.138-.41.72-.462.74-.022.01-.098-.038-.166-.105l-.126-.122.048.134c.071.202.148.77.154 1.143.005.305 0 .345-.083.511-.079.162-.22.309-.295.309-.015 0-.123-.07-.24-.155-.237-.173-.454-.242-.664-.21-.132.02-.136.017-.286-.157-.137-.16-.206-.203-.676-.432-.35-.172-.57-.26-.666-.269-.206-.019-.884.042-.995.09-.09.038-.077.042.205.064.164.014.352.04.416.059.2.057.796.332.943.433.178.123.398.342.457.455.05.098.06.087-.209.222-.211.106-.583.41-.684.56-.135.2-.068.293.107.15.238-.196 1.014-.601 1.245-.65a.909.909 0 0 1 .276-.016c.16.026.414.11.413.134 0 .012-.05.1-.112.195a1.9 1.9 0 0 0-.176.39c-.057.183-.06.234-.03.338.028.092.058.128.12.144.073.018.1 0 .211-.134.404-.49.91-.937 1.352-1.198.404-.239 1.339-.704 1.516-.755.135-.039.275-.05.541-.042.479.014.498.033.647.615.056.222.104.252.452.29.456.049.606.164.687.526.046.206.012.268-.147.268-.24 0-.916.188-1.629.453-.587.219-1.116.516-1.486.836-.316.273-1.12 1.086-1.26 1.273-.047.064-.26.254-.473.422-.531.42-.78.641-.78.69 0 .022-.065.119-.143.214-.165.2-.285.258-.803.389-.297.074-.408.088-.592.074a3.205 3.205 0 0 0-.276.013c-.121.01-.284.004-.36-.012zM9.085 18.273a4.036 4.036 0 0 0-.237-.437c-.237-.357-.32-.784-.293-1.516.019-.525.093-.87.272-1.265.15-.33.208-.392.494-.526.37-.173.373-.172.42.123.064.401.075.753.04 1.264-.031.453-.03.494.03.652.047.126.055.184.03.227-.05.088-.376 1.223-.417 1.457-.041.234-.07.287-.156.287-.044 0-.092-.07-.183-.266z" transform="translate(-.442 -1.766)"/><path style="fill:#fff;stroke:none;stroke-width:.331115" d="M18.63 16.343c-.037-.595-.072-.5.406-1.116.234-.304.438-.556.453-.561.015-.005.094.121.176.28l.15.29-.014.351c-.018.495-.057.564-.388.696-.261.105-.582.265-.697.349-.066.047-.066.045-.087-.29zM14.35 25.135a12.57 12.57 0 0 0-.733-.059l-.18-.002-.258-.386c-.675-1.01-1.218-1.72-1.624-2.121l-.798-.79c-.281-.277-.53-.54-.553-.583-.051-.097-.138-.466-.292-1.246-.11-.553-.119-.64-.117-1.12.003-.594.05-1.002.16-1.388.108-.38.104-.372.136-.315.015.026.084.24.155.477.223.747.356 1.012.711 1.419.1.113.206.281.257.403.287.69.627 1.447.671 1.499.029.032.374.346.767.697l.715.638.5.17.499.17h1.966l.33-.174c.328-.17.333-.176.478-.414.223-.366.326-.467.842-.835.543-.386.588-.428.726-.69.128-.242.523-.65.91-.942.582-.438.715-.464.704-.136a2.318 2.318 0 0 1-.237.87c-.069.145-.139.337-.155.425l-.076.428c-.058.339-.172.563-.69 1.365-.642.994-.864 1.279-1.777 2.283l-.291.32-.277.02c-.152.01-.48.027-.73.038l-.454.02.022-.232c.013-.128.042-.346.066-.485.05-.287.112-.362.362-.439.374-.114.97-.388 1.222-.56.091-.063.135-.115.135-.163 0-.171-.168-.194-.379-.05-.413.28-.751.386-1.391.437-.23.018-.442.034-.47.034-.054 0-.174.176-.135.198.014.008.099.038.19.068.091.03.166.066.166.081s-.085.273-.19.573c-.104.3-.189.549-.189.553 0 .014-.098.006-.694-.056zM11.797 26.582a8.07 8.07 0 0 1 .263-.61l.26-.567.739-.009c.634-.007.756 0 .856.044.11.049.235.049 1.861-.001 1.571-.049 1.76-.06 1.898-.115.192-.076.206-.076.46.006l.207.067.151.472c.084.26.147.478.141.484-.005.006-.33-.01-.72-.033-.611-.038-.758-.058-1.07-.143-.338-.093-.387-.098-.695-.08-.182.012-.48.041-.662.065-.182.024-.58.067-.883.095-.452.041-2.309.28-2.705.348-.073.012-.102.005-.1-.023z" transform="translate(-.442 -1.766)"/><path style="fill:#fff;stroke:none;stroke-width:.331115" d="M16.337 27.659c-.702-.012-1.676-.023-2.163-.026l-.885-.004-.037-.16a2.651 2.651 0 0 0-.132-.376c-.103-.235-.116-.31-.055-.331.021-.008.37-.05.775-.093.404-.044.748-.088.763-.097.015-.01.281-.05.591-.092.516-.068.585-.07.814-.031.138.023.611.07 1.052.106.441.035.808.07.816.078.007.008 0 .061-.018.119a5.83 5.83 0 0 0-.088.522c-.046.34-.066.417-.106.412a91.02 91.02 0 0 0-1.327-.027zM18.83 25.363l-.143-.054-.154-.576-.155-.576.106-.11c.058-.06.116-.098.129-.085.027.028.437 1.359.437 1.418 0 .053-.047.05-.22-.017zM12.506 25.076c-.02-.033.141-.38.177-.38.028 0 .28.345.28.383 0 .037-.434.034-.457-.003zM11.744 25.182c.018-.045.549-.957.576-.988.02-.023.138.1.138.142 0 .023-.084.195-.185.382-.165.304-.202.35-.34.426-.178.1-.215.107-.189.038zM11.874 10.865c-.093-.142.05-.288.191-.195.092.06.1.145.02.217-.081.073-.154.066-.211-.022z" transform="translate(-.442 -1.766)"/><path style="fill:none;fill-opacity:1;stroke:none;stroke-width:.331115" d="M11.531 26.186c.246-.556.278-.639.252-.664-.01-.01-.143.018-.294.064-.15.045-.28.076-.289.068-.007-.008.201-.388.464-.846.263-.457.478-.854.478-.881 0-.028-.373-.43-.83-.896-1.227-1.253-1.23-1.255-1.314-1.493a8.644 8.644 0 0 0-.21-.512c-.117-.263-.138-.339-.138-.515 0-.204-.084-.624-.23-1.15-.072-.262-.076-.268-.197-.308a.619.619 0 0 1-.178-.09c-.03-.028-.224-.395-.43-.816-.426-.866-.406-.845-.734-.759-.287.075-.464.084-.895.042l-.409-.04-.13-.233c-.185-.327-.207-.336-.737-.288-.373.033-.468.032-.728-.013-.35-.06-.58-.13-.63-.19-.08-.095-.35-1.53-.352-1.862-.002-.322.124-.747.498-1.684l.269-.674.059-1.313c.097-2.163.152-2.935.219-3.111.037-.099.448-.467.723-.649.285-.188 1.287-.688 2.365-1.178 1.07-.488 1.006-.486 1.694-.05.274.173.513.315.531.315.018 0 .324-.139.679-.308l.645-.307.333-.394c.183-.217.425-.487.538-.6a3.56 3.56 0 0 1 1.101-.726L13.971 4h.54c.438 0 .585.012.79.064.258.066.532.182.532.226 0 .013.096.073.213.132.117.06.516.335.888.613.371.278.762.547.867.598.106.051.437.174.735.273l.543.18.275.317.274.318.166-.018a5.66 5.66 0 0 0 .658-.164l.492-.147.45.031c.247.017.653.064.902.104.373.061.46.085.492.138.022.035.256.44.521.9s.567.97.67 1.134c.15.239.194.337.215.489.03.215.081 1.204.122 2.367l.028.788.109.284c.103.269.31.905.523 1.609.087.287.096.361.103.82.007.49.003.53-.146 1.3l-.154.797-.447.27-.446.27-.344-.009-.343-.01-.08.284-.081.284-.766.13c-.421.073-.829.155-.906.185-.209.08-.506.312-.577.451-.083.163-.13.35-.335 1.36-.097.473-.202.93-.235 1.015-.125.33-.924 1.647-1.215 2.005-.112.137-.145.201-.135.262.008.044.139.553.291 1.13.152.578.269 1.059.259 1.069-.01.01-.147-.035-.304-.1-.158-.066-.293-.113-.3-.106-.008.008.02.148.062.313.042.164.097.388.122.498l.047.2-.637-.015a22.742 22.742 0 0 1-1.456-.098c-.451-.047-.941-.093-1.089-.103-.273-.018-.784.036-1.283.137-.197.04-.548.052-1.752.064l-1.505.014zm1.22.306c1.208-.163 3.203-.38 3.532-.385.184-.002.355.02.588.08.18.044.5.095.71.112.712.057 1.06.072 1.06.046 0-.014-.067-.235-.148-.49l-.146-.465-.224-.069c-.191-.058-.243-.063-.35-.032-.252.072-.524.094-1.562.127-1.653.053-2.172.055-2.334.009-.102-.03-.342-.038-.852-.032l-.71.01-.259.567c-.242.53-.286.647-.244.647.01 0 .431-.056.938-.125zm6.3-1.118c0-.037-.228-.802-.384-1.288-.02-.066-.054-.119-.074-.119-.042 0-.205.163-.206.207 0 .016.065.28.146.585l.148.555.13.05c.164.063.24.066.24.01zm-7.098-.24c.123-.078.178-.15.326-.42.098-.18.179-.348.179-.374 0-.026-.03-.074-.065-.106-.056-.05-.07-.053-.096-.013-.071.11-.536.915-.553.96-.029.074.046.058.209-.047zm3.284-.489c.1-.295.184-.552.185-.571 0-.02-.067-.06-.15-.09-.2-.076-.215-.094-.153-.189.044-.066.077-.08.195-.08.246 0 .745-.063 1.001-.126.135-.034.355-.12.49-.192.455-.246.475-.255.539-.235.107.034.114.138.017.239-.103.108-.665.389-1.102.55-.4.149-.416.158-.471.264-.046.09-.144.67-.144.857v.102l.607-.023c.918-.036.79.02 1.32-.57.773-.862 1.024-1.193 1.68-2.217.448-.7.537-.891.632-1.37.044-.222.117-.492.163-.6.23-.546.33-.975.266-1.141-.036-.096-.09-.1-.248-.02-.418.214-1.063.806-1.348 1.237-.189.287-.226.324-.62.613-.628.462-.7.53-.919.862l-.201.306-.31.164-.31.164h-2.021l-.48-.16-.48-.162-.746-.667c-.85-.759-.727-.584-1.216-1.719-.262-.61-.288-.655-.557-.982-.234-.285-.388-.611-.593-1.254-.11-.343-.188-.54-.206-.522-.074.074-.216.78-.251 1.246-.053.708-.02 1.05.209 2.123.162.759.071.618 1.005 1.561.993 1.002 1.399 1.503 2.179 2.688l.22.336.3.022c.165.012.47.04.679.062.208.022.44.037.517.035l.138-.004zm-2.275.431c0-.04-.252-.383-.28-.383-.035 0-.193.353-.173.385.02.033.453.032.453-.002zm3.123-2.835c.55-.136.656-.196.848-.483.123-.185.309-.358.92-.857.164-.134.454-.416.645-.627.436-.482 1.089-1.086 1.383-1.28.492-.326 1.282-.657 2.102-.882.217-.06.473-.117.568-.127a.638.638 0 0 0 .216-.053c.086-.068-.029-.465-.173-.595-.088-.08-.219-.122-.527-.169-.156-.023-.304-.064-.334-.092-.03-.027-.088-.172-.127-.321-.048-.183-.1-.304-.16-.37l-.088-.099h-.905l-.534.262c-1.117.547-1.38.726-2.026 1.382-.459.466-.541.518-.612.386-.07-.131-.018-.392.14-.698.161-.31.161-.31-.043-.37-.238-.071-.388-.071-.599 0-.243.08-.786.364-1.068.557-.207.141-.275.15-.238.032.057-.179.445-.517.83-.723.15-.081.16-.092.125-.158-.124-.237-.438-.488-.85-.682-.411-.193-.563-.244-.802-.27a7.055 7.055 0 0 1-.3-.038c-.096-.016-.102-.021-.044-.043.037-.014.26-.043.497-.064.417-.038.435-.037.627.033.109.04.378.161.598.271.31.155.44.24.576.378.162.163.185.176.282.158.181-.034.416.04.668.208.262.175.31.177.432.017.195-.257.229-.43.182-.94-.032-.352-.108-.826-.15-.936-.013-.035.022-.018.097.048a.55.55 0 0 0 .145.102c.037 0 .337-.47.43-.674.097-.212.125-.464.077-.7-.082-.405-.253-.56-.974-.88-.462-.206-.508-.245-.898-.756-.359-.471-.48-.558-1.028-.74-.513-.17-1.504-.35-1.921-.35-.428 0-.985.256-1.44.662-.376.334-.546.414-1.214.568-.643.148-.764.2-.963.412-.267.286-.386.663-.351 1.117.02.256.07.49.104.49.011 0 .149-.125.307-.277a3.553 3.553 0 0 1 1.462-.87c.394-.125.594-.146 1.374-.147.72 0 .921.036.418.074-.511.04-1.493.262-2.03.46-.357.131-.409.162-.472.279-.03.055-.197.257-.37.449-.507.559-.66.865-.66 1.325 0 .182.017.273.073.394.063.135.077.232.1.678.02.431.039.567.11.789.161.512.482 1.057.814 1.384l.172.17.326-.237c.39-.283.654-.448.678-.423.01.01-.145.235-.344.5-.514.686-.48.616-.421.843.057.225.139.39.381.775.418.663.77 1.044 1.168 1.266.219.123 1.259.492 1.531.545.253.048.898.006 1.26-.083zm-6.724-3.755c.016-.03.046-.133.067-.228.056-.25.304-1.13.38-1.349.06-.175.061-.194.014-.325-.043-.12-.047-.234-.03-.771.016-.436.01-.73-.017-.947-.046-.376-.073-.457-.15-.457-.081 0-.548.232-.613.305-.097.11-.306.597-.378.882-.06.24-.07.367-.07.895-.002.645.032.874.168 1.136.37.713.49.915.543.915.032 0 .07-.025.086-.056zm14.746-1.248c.125-.093.245-.19.267-.217.022-.026.112-.437.2-.912l.162-.864-.052-.464c-.065-.589-.222-1.21-.41-1.626-.214-.477-.213-.465-.4-3.43l-.033-.536-.123-.174c-.068-.095-.304-.436-.524-.757-.788-1.144-.901-1.297-.984-1.328a4.238 4.238 0 0 0-.44-.093c-.47-.08-.924-.08-1.253.002a2.218 2.218 0 0 1-.416.063c-.129 0-.216.027-.402.123-.131.068-.239.113-.239.1 0-.012-.098-.13-.22-.26-.24-.262-.748-.616-1.144-.798a7.287 7.287 0 0 0-.718-.252c-.339-.101-.537-.18-.646-.254-.087-.06-.378-.328-.646-.598l-.489-.49h-.442c-.506 0-1.426.054-1.6.093-.298.067-1.138.818-1.62 1.45l-.25.327-.331.14c-.455.194-.862.327-1.06.347-.156.016-.185.007-.507-.167-.66-.354-.703-.373-.908-.386l-.194-.012-.756.385c-1.386.708-1.941 1.019-2.137 1.194-.14.127-.4.637-.48.944-.057.217-.118 2.227-.09 2.956l.019.505-.208.71c-.115.39-.275.93-.356 1.198-.14.462-.148.51-.15.868-.002.422.104 1.135.203 1.363.035.079.1.159.162.196.183.112.334.113.859.006.54-.11.7-.12.799-.051.037.026.148.174.246.328.175.277.18.282.325.302.158.02.808-.03.924-.073.067-.025.07-.042.074-.513.003-.312.025-.596.062-.794.037-.204.046-.322.026-.347a.719.719 0 0 1-.07-.165 12.12 12.12 0 0 0-.367-.789c-.4-.81-.416-.866-.367-1.253.077-.603.215-.938.562-1.365.113-.139.227-.293.254-.343.056-.104.106-.414.219-1.356.089-.746.099-.792.344-1.566l.193-.607c.014-.044-.052-.089-.337-.228-.328-.162-.37-.174-.578-.174-.49 0-1.135.242-1.43.537-.176.176-.18.184-.356.635-.138.353-.232.531-.279.531-.102 0-.034-.373.192-1.056l.104-.316.379-.195c.675-.35 1.45-.61 1.96-.662.256-.025.4.045.678.328l.21.214-.236.662c-.13.365-.287.826-.35 1.025l-.113.363-.013.741c-.006.408 0 .82.016.917a.848.848 0 0 1 .016.212c-.007.02-.141.14-.299.265-.45.359-.809.818-.88 1.126-.031.14.014.45.101.682.11.292.648 1.151.721 1.151.014 0 .079-.081.145-.18.155-.236.447-.522.728-.713l.223-.152.086-.305c.165-.585.388-.913.778-1.145a1.79 1.79 0 0 0 .219-.141.54.54 0 0 0-.122-.074c-.296-.151-.762-.691-.963-1.115-.215-.457-.251-.916-.1-1.3.286-.733.638-1.073 1.243-1.2.438-.094 1.143-.034 1.508.128.25.11.438.274.595.517.396.612.456 1.171.19 1.769-.057.13-.101.24-.097.245.005.005.205-.08.446-.187.418-.188.451-.198.73-.21.313-.013.814.043 1.522.171.526.095.658.138.854.28a.958.958 0 0 0 .18.111c.012 0 .024-.259.026-.576.007-1.104.19-1.502.855-1.846a2.25 2.25 0 0 1 1.019-.282c.301-.015.348-.01.523.062.232.095.475.248.705.445.094.08.184.147.198.147.015 0 .019-.103.008-.229-.01-.126-.021-.44-.025-.697l-.006-.47.259-.14.258-.14.388.093c.214.051.585.139.825.194l.436.101.166.258c.318.493.768 1.267.805 1.383.027.086.028.134.003.181-.061.115-.028.155-.577-.692l-.296-.457-.708-.23c-.389-.126-.747-.23-.795-.229-.078.001-.1.026-.18.198-.168.359-.266 1.046-.248 1.732.013.452-.015.392.404.893.27.321.738.994.846 1.214.086.175.086.178.097.97l.01.796-.18.293c-.394.643-.6.863-.96 1.023-.261.117-.285.147-.285.375 0 .108.009.238.02.29l.018.095.557-.004c.465-.003.584.006.723.054.09.032.178.082.194.11.015.03.042.174.06.32.039.324.06.347.406.421.254.055.409.137.651.344.12.103.125.104.52.121.22.01.426.02.457.024.031.003.159-.07.284-.162zm-5.255-.676c.083-.048.303-.157.488-.24.423-.192.442-.222.461-.75l.014-.366-.152-.272c-.084-.15-.163-.27-.176-.265-.033.012-.682.834-.788 1-.076.118-.09.174-.09.347 0 .293.036.633.066.633.014 0 .094-.04.177-.087zm1.545-1.746.332-.13.156-.24c.325-.503.444-.834.487-1.35l.021-.258-.424-.689a64.571 64.571 0 0 1-.51-.839c-.049-.083-.11-.15-.139-.15-.029 0-.195.146-.37.324-.283.287-.356.343-.664.502-.41.21-.714.31-.95.31-.095 0-.344-.043-.553-.096-.21-.053-.387-.09-.395-.082-.03.03.056.142.222.294.126.115.242.184.435.257a5.33 5.33 0 0 1 1.05.596c.244.188.271.241.293.571.018.287.02.293.164.473.08.1.216.285.303.41.086.124.17.226.183.226.015 0 .176-.058.359-.13zm-1.611-3.18c.388-.224.556-.653.39-.997-.09-.186-.386-.472-.594-.574-.148-.072-.219-.087-.415-.086-.277 0-.403.055-.655.281-.154.14-.342.448-.318.522.007.018.101-.03.211-.107.25-.177.45-.23.666-.177.518.124.788.693.52 1.09a.789.789 0 0 0-.077.126c0 .04.129.003.272-.079zm-7.836-.27c-.018-.293.042-.472.227-.674a.704.704 0 0 1 .57-.256c.248 0 .47.101.625.286l.116.139v-.113c.001-.17-.082-.416-.2-.586-.227-.33-.676-.426-1.083-.234-.667.316-.917 1.198-.45 1.591.054.046.124.083.155.083.05 0 .054-.025.04-.237zm8.867-.357c.105-.193.18-.478.18-.684 0-.525-.383-1.151-.856-1.404-.17-.09-.235-.106-.484-.12a1.53 1.53 0 0 0-.853.166c-.288.139-.497.325-.596.53-.085.176-.157.524-.14.673l.01.09.2-.188c.245-.234.401-.317.682-.365a1.398 1.398 0 0 1 1.459.76c.055.113.131.329.17.481.077.31.09.313.228.06zm-1.447.102c.112-.113.026-.29-.123-.253-.115.029-.144.169-.05.245.087.07.11.071.173.008zm-8.168-.33c.159-.62.617-1.047 1.22-1.14a.903.903 0 0 1 .45.015c.352.087.545.26.755.676.046.091.096.166.111.166.078 0 .088-.388.02-.746-.148-.773-.662-1.145-1.535-1.109-.3.013-.36.025-.541.115-.273.134-.575.453-.734.776-.109.22-.12.268-.133.563-.012.273-.003.354.055.527.075.22.213.432.255.39.014-.015.049-.12.077-.232zm1.882.106c.08-.072.073-.157-.019-.217-.141-.093-.284.053-.191.195.057.088.13.095.21.022z" transform="translate(-.442 -1.766)"/><path style="fill:none;fill-opacity:1;stroke:none;stroke-width:.331115" d="M11.531 26.186c.246-.556.278-.639.252-.664-.01-.01-.143.018-.294.064-.15.045-.28.076-.289.068-.007-.008.201-.388.464-.846.263-.457.478-.854.478-.881 0-.028-.373-.43-.83-.896-1.227-1.253-1.23-1.255-1.314-1.493a8.644 8.644 0 0 0-.21-.512c-.117-.263-.138-.339-.138-.515 0-.204-.084-.624-.23-1.15-.072-.262-.076-.268-.197-.308a.619.619 0 0 1-.178-.09c-.03-.028-.224-.395-.43-.816-.426-.866-.406-.845-.734-.759-.287.075-.464.084-.895.042l-.409-.04-.13-.233c-.185-.327-.207-.336-.737-.288-.373.033-.468.032-.728-.013-.35-.06-.58-.13-.63-.19-.08-.095-.35-1.53-.352-1.862-.002-.322.124-.747.498-1.684l.269-.674.059-1.313c.097-2.163.152-2.935.219-3.111.037-.099.448-.467.723-.649.285-.188 1.287-.688 2.365-1.178 1.07-.488 1.006-.486 1.694-.05.274.173.513.315.531.315.018 0 .324-.139.679-.308l.645-.307.333-.394c.183-.217.425-.487.538-.6a3.56 3.56 0 0 1 1.101-.726L13.971 4h.54c.438 0 .585.012.79.064.258.066.532.182.532.226 0 .013.096.073.213.132.117.06.516.335.888.613.371.278.762.547.867.598.106.051.437.174.735.273l.543.18.275.317.274.318.166-.018a5.66 5.66 0 0 0 .658-.164l.492-.147.45.031c.247.017.653.064.902.104.373.061.46.085.492.138.022.035.256.44.521.9s.567.97.67 1.134c.15.239.194.337.215.489.03.215.081 1.204.122 2.367l.028.788.109.284c.103.269.31.905.523 1.609.087.287.096.361.103.82.007.49.003.53-.146 1.3l-.154.797-.447.27-.446.27-.344-.009-.343-.01-.08.284-.081.284-.766.13c-.421.073-.829.155-.906.185-.209.08-.506.312-.577.451-.083.163-.13.35-.335 1.36-.097.473-.202.93-.235 1.015-.125.33-.924 1.647-1.215 2.005-.112.137-.145.201-.135.262.008.044.139.553.291 1.13.152.578.269 1.059.259 1.069-.01.01-.147-.035-.304-.1-.158-.066-.293-.113-.3-.106-.008.008.02.148.062.313.042.164.097.388.122.498l.047.2-.637-.015a22.742 22.742 0 0 1-1.456-.098c-.451-.047-.941-.093-1.089-.103-.273-.018-.784.036-1.283.137-.197.04-.548.052-1.752.064l-1.505.014zm1.22.306c1.208-.163 3.203-.38 3.532-.385.184-.002.355.02.588.08.18.044.5.095.71.112.712.057 1.06.072 1.06.046 0-.014-.067-.235-.148-.49l-.146-.465-.224-.069c-.191-.058-.243-.063-.35-.032-.252.072-.524.094-1.562.127-1.653.053-2.172.055-2.334.009-.102-.03-.342-.038-.852-.032l-.71.01-.259.567c-.242.53-.286.647-.244.647.01 0 .431-.056.938-.125zm6.3-1.118c0-.037-.228-.802-.384-1.288-.02-.066-.054-.119-.074-.119-.042 0-.205.163-.206.207 0 .016.065.28.146.585l.148.555.13.05c.164.063.24.066.24.01zm-7.098-.24c.123-.078.178-.15.326-.42.098-.18.179-.348.179-.374 0-.026-.03-.074-.065-.106-.056-.05-.07-.053-.096-.013-.071.11-.536.915-.553.96-.029.074.046.058.209-.047zm3.284-.489c.1-.295.184-.552.185-.571 0-.02-.067-.06-.15-.09-.2-.076-.215-.094-.153-.189.044-.066.077-.08.195-.08.246 0 .745-.063 1.001-.126.135-.034.355-.12.49-.192.455-.246.475-.255.539-.235.107.034.114.138.017.239-.103.108-.665.389-1.102.55-.4.149-.416.158-.471.264-.046.09-.144.67-.144.857v.102l.607-.023c.918-.036.79.02 1.32-.57.773-.862 1.024-1.193 1.68-2.217.448-.7.537-.891.632-1.37.044-.222.117-.492.163-.6.23-.546.33-.975.266-1.141-.036-.096-.09-.1-.248-.02-.418.214-1.063.806-1.348 1.237-.189.287-.226.324-.62.613-.628.462-.7.53-.919.862l-.201.306-.31.164-.31.164h-2.021l-.48-.16-.48-.162-.746-.667c-.85-.759-.727-.584-1.216-1.719-.262-.61-.288-.655-.557-.982-.234-.285-.388-.611-.593-1.254-.11-.343-.188-.54-.206-.522-.074.074-.216.78-.251 1.246-.053.708-.02 1.05.209 2.123.162.759.071.618 1.005 1.561.993 1.002 1.399 1.503 2.179 2.688l.22.336.3.022c.165.012.47.04.679.062.208.022.44.037.517.035l.138-.004zm-2.275.431c0-.04-.252-.383-.28-.383-.035 0-.193.353-.173.385.02.033.453.032.453-.002zm3.123-2.835c.55-.136.656-.196.848-.483.123-.185.309-.358.92-.857.164-.134.454-.416.645-.627.436-.482 1.089-1.086 1.383-1.28.492-.326 1.282-.657 2.102-.882.217-.06.473-.117.568-.127a.638.638 0 0 0 .216-.053c.086-.068-.029-.465-.173-.595-.088-.08-.219-.122-.527-.169-.156-.023-.304-.064-.334-.092-.03-.027-.088-.172-.127-.321-.048-.183-.1-.304-.16-.37l-.088-.099h-.905l-.534.262c-1.117.547-1.38.726-2.026 1.382-.459.466-.541.518-.612.386-.07-.131-.018-.392.14-.698.161-.31.161-.31-.043-.37-.238-.071-.388-.071-.599 0-.243.08-.786.364-1.068.557-.207.141-.275.15-.238.032.057-.179.445-.517.83-.723.15-.081.16-.092.125-.158-.124-.237-.438-.488-.85-.682-.411-.193-.563-.244-.802-.27a7.055 7.055 0 0 1-.3-.038c-.096-.016-.102-.021-.044-.043.037-.014.26-.043.497-.064.417-.038.435-.037.627.033.109.04.378.161.598.271.31.155.44.24.576.378.162.163.185.176.282.158.181-.034.416.04.668.208.262.175.31.177.432.017.195-.257.229-.43.182-.94-.032-.352-.108-.826-.15-.936-.013-.035.022-.018.097.048a.55.55 0 0 0 .145.102c.037 0 .337-.47.43-.674.097-.212.125-.464.077-.7-.082-.405-.253-.56-.974-.88-.462-.206-.508-.245-.898-.756-.359-.471-.48-.558-1.028-.74-.513-.17-1.504-.35-1.921-.35-.428 0-.985.256-1.44.662-.376.334-.546.414-1.214.568-.643.148-.764.2-.963.412-.267.286-.386.663-.351 1.117.02.256.07.49.104.49.011 0 .149-.125.307-.277a3.553 3.553 0 0 1 1.462-.87c.394-.125.594-.146 1.374-.147.72 0 .921.036.418.074-.511.04-1.493.262-2.03.46-.357.131-.409.162-.472.279-.03.055-.197.257-.37.449-.507.559-.66.865-.66 1.325 0 .182.017.273.073.394.063.135.077.232.1.678.02.431.039.567.11.789.161.512.482 1.057.814 1.384l.172.17.326-.237c.39-.283.654-.448.678-.423.01.01-.145.235-.344.5-.514.686-.48.616-.421.843.057.225.139.39.381.775.418.663.77 1.044 1.168 1.266.219.123 1.259.492 1.531.545.253.048.898.006 1.26-.083zm-6.724-3.755c.016-.03.046-.133.067-.228.056-.25.304-1.13.38-1.349.06-.175.061-.194.014-.325-.043-.12-.047-.234-.03-.771.016-.436.01-.73-.017-.947-.046-.376-.073-.457-.15-.457-.081 0-.548.232-.613.305-.097.11-.306.597-.378.882-.06.24-.07.367-.07.895-.002.645.032.874.168 1.136.37.713.49.915.543.915.032 0 .07-.025.086-.056zm14.746-1.248c.125-.093.245-.19.267-.217.022-.026.112-.437.2-.912l.162-.864-.052-.464c-.065-.589-.222-1.21-.41-1.626-.214-.477-.213-.465-.4-3.43l-.033-.536-.123-.174c-.068-.095-.304-.436-.524-.757-.788-1.144-.901-1.297-.984-1.328a4.238 4.238 0 0 0-.44-.093c-.47-.08-.924-.08-1.253.002a2.218 2.218 0 0 1-.416.063c-.129 0-.216.027-.402.123-.131.068-.239.113-.239.1 0-.012-.098-.13-.22-.26-.24-.262-.748-.616-1.144-.798a7.287 7.287 0 0 0-.718-.252c-.339-.101-.537-.18-.646-.254-.087-.06-.378-.328-.646-.598l-.489-.49h-.442c-.506 0-1.426.054-1.6.093-.298.067-1.138.818-1.62 1.45l-.25.327-.331.14c-.455.194-.862.327-1.06.347-.156.016-.185.007-.507-.167-.66-.354-.703-.373-.908-.386l-.194-.012-.756.385c-1.386.708-1.941 1.019-2.137 1.194-.14.127-.4.637-.48.944-.057.217-.118 2.227-.09 2.956l.019.505-.208.71c-.115.39-.275.93-.356 1.198-.14.462-.148.51-.15.868-.002.422.104 1.135.203 1.363.035.079.1.159.162.196.183.112.334.113.859.006.54-.11.7-.12.799-.051.037.026.148.174.246.328.175.277.18.282.325.302.158.02.808-.03.924-.073.067-.025.07-.042.074-.513.003-.312.025-.596.062-.794.037-.204.046-.322.026-.347a.719.719 0 0 1-.07-.165 12.12 12.12 0 0 0-.367-.789c-.4-.81-.416-.866-.367-1.253.077-.603.215-.938.562-1.365.113-.139.227-.293.254-.343.056-.104.106-.414.219-1.356.089-.746.099-.792.344-1.566l.193-.607c.014-.044-.052-.089-.337-.228-.328-.162-.37-.174-.578-.174-.49 0-1.135.242-1.43.537-.176.176-.18.184-.356.635-.138.353-.232.531-.279.531-.102 0-.034-.373.192-1.056l.104-.316.379-.195c.675-.35 1.45-.61 1.96-.662.256-.025.4.045.678.328l.21.214-.236.662c-.13.365-.287.826-.35 1.025l-.113.363-.013.741c-.006.408 0 .82.016.917a.848.848 0 0 1 .016.212c-.007.02-.141.14-.299.265-.45.359-.809.818-.88 1.126-.031.14.014.45.101.682.11.292.648 1.151.721 1.151.014 0 .079-.081.145-.18.155-.236.447-.522.728-.713l.223-.152.086-.305c.165-.585.388-.913.778-1.145a1.79 1.79 0 0 0 .219-.141.54.54 0 0 0-.122-.074c-.296-.151-.762-.691-.963-1.115-.215-.457-.251-.916-.1-1.3.286-.733.638-1.073 1.243-1.2.438-.094 1.143-.034 1.508.128.25.11.438.274.595.517.396.612.456 1.171.19 1.769-.057.13-.101.24-.097.245.005.005.205-.08.446-.187.418-.188.451-.198.73-.21.313-.013.814.043 1.522.171.526.095.658.138.854.28a.958.958 0 0 0 .18.111c.012 0 .024-.259.026-.576.007-1.104.19-1.502.855-1.846a2.25 2.25 0 0 1 1.019-.282c.301-.015.348-.01.523.062.232.095.475.248.705.445.094.08.184.147.198.147.015 0 .019-.103.008-.229-.01-.126-.021-.44-.025-.697l-.006-.47.259-.14.258-.14.388.093c.214.051.585.139.825.194l.436.101.166.258c.318.493.768 1.267.805 1.383.027.086.028.134.003.181-.061.115-.028.155-.577-.692l-.296-.457-.708-.23c-.389-.126-.747-.23-.795-.229-.078.001-.1.026-.18.198-.168.359-.266 1.046-.248 1.732.013.452-.015.392.404.893.27.321.738.994.846 1.214.086.175.086.178.097.97l.01.796-.18.293c-.394.643-.6.863-.96 1.023-.261.117-.285.147-.285.375 0 .108.009.238.02.29l.018.095.557-.004c.465-.003.584.006.723.054.09.032.178.082.194.11.015.03.042.174.06.32.039.324.06.347.406.421.254.055.409.137.651.344.12.103.125.104.52.121.22.01.426.02.457.024.031.003.159-.07.284-.162zm-5.255-.676c.083-.048.303-.157.488-.24.423-.192.442-.222.461-.75l.014-.366-.152-.272c-.084-.15-.163-.27-.176-.265-.033.012-.682.834-.788 1-.076.118-.09.174-.09.347 0 .293.036.633.066.633.014 0 .094-.04.177-.087zm1.545-1.746.332-.13.156-.24c.325-.503.444-.834.487-1.35l.021-.258-.424-.689a64.571 64.571 0 0 1-.51-.839c-.049-.083-.11-.15-.139-.15-.029 0-.195.146-.37.324-.283.287-.356.343-.664.502-.41.21-.714.31-.95.31-.095 0-.344-.043-.553-.096-.21-.053-.387-.09-.395-.082-.03.03.056.142.222.294.126.115.242.184.435.257a5.33 5.33 0 0 1 1.05.596c.244.188.271.241.293.571.018.287.02.293.164.473.08.1.216.285.303.41.086.124.17.226.183.226.015 0 .176-.058.359-.13zm-1.611-3.18c.388-.224.556-.653.39-.997-.09-.186-.386-.472-.594-.574-.148-.072-.219-.087-.415-.086-.277 0-.403.055-.655.281-.154.14-.342.448-.318.522.007.018.101-.03.211-.107.25-.177.45-.23.666-.177.518.124.788.693.52 1.09a.789.789 0 0 0-.077.126c0 .04.129.003.272-.079zm-7.836-.27c-.018-.293.042-.472.227-.674a.704.704 0 0 1 .57-.256c.248 0 .47.101.625.286l.116.139v-.113c.001-.17-.082-.416-.2-.586-.227-.33-.676-.426-1.083-.234-.667.316-.917 1.198-.45 1.591.054.046.124.083.155.083.05 0 .054-.025.04-.237zm8.867-.357c.105-.193.18-.478.18-.684 0-.525-.383-1.151-.856-1.404-.17-.09-.235-.106-.484-.12a1.53 1.53 0 0 0-.853.166c-.288.139-.497.325-.596.53-.085.176-.157.524-.14.673l.01.09.2-.188c.245-.234.401-.317.682-.365a1.398 1.398 0 0 1 1.459.76c.055.113.131.329.17.481.077.31.09.313.228.06zm-1.447.102c.112-.113.026-.29-.123-.253-.115.029-.144.169-.05.245.087.07.11.071.173.008zm-8.168-.33c.159-.62.617-1.047 1.22-1.14a.903.903 0 0 1 .45.015c.352.087.545.26.755.676.046.091.096.166.111.166.078 0 .088-.388.02-.746-.148-.773-.662-1.145-1.535-1.109-.3.013-.36.025-.541.115-.273.134-.575.453-.734.776-.109.22-.12.268-.133.563-.012.273-.003.354.055.527.075.22.213.432.255.39.014-.015.049-.12.077-.232zm1.882.106c.08-.072.073-.157-.019-.217-.141-.093-.284.053-.191.195.057.088.13.095.21.022z" transform="translate(-.442 -1.766)"/><path style="fill:none;fill-opacity:1;stroke:none;stroke-width:.331115" d="M11.531 26.186c.246-.556.278-.639.252-.664-.01-.01-.143.018-.294.064-.15.045-.28.076-.289.068-.007-.008.201-.388.464-.846.263-.457.478-.854.478-.881 0-.028-.373-.43-.83-.896-1.227-1.253-1.23-1.255-1.314-1.493a8.644 8.644 0 0 0-.21-.512c-.117-.263-.138-.339-.138-.515 0-.204-.084-.624-.23-1.15-.072-.262-.076-.268-.197-.308a.619.619 0 0 1-.178-.09c-.03-.028-.224-.395-.43-.816-.426-.866-.406-.845-.734-.759-.287.075-.464.084-.895.042l-.409-.04-.13-.233c-.185-.327-.207-.336-.737-.288-.373.033-.468.032-.728-.013-.35-.06-.58-.13-.63-.19-.08-.095-.35-1.53-.352-1.862-.002-.322.124-.747.498-1.684l.269-.674.059-1.313c.097-2.163.152-2.935.219-3.111.037-.099.448-.467.723-.649.285-.188 1.287-.688 2.365-1.178 1.07-.488 1.006-.486 1.694-.05.274.173.513.315.531.315.018 0 .324-.139.679-.308l.645-.307.333-.394c.183-.217.425-.487.538-.6a3.56 3.56 0 0 1 1.101-.726L13.971 4h.54c.438 0 .585.012.79.064.258.066.532.182.532.226 0 .013.096.073.213.132.117.06.516.335.888.613.371.278.762.547.867.598.106.051.437.174.735.273l.543.18.275.317.274.318.166-.018a5.66 5.66 0 0 0 .658-.164l.492-.147.45.031c.247.017.653.064.902.104.373.061.46.085.492.138.022.035.256.44.521.9s.567.97.67 1.134c.15.239.194.337.215.489.03.215.081 1.204.122 2.367l.028.788.109.284c.103.269.31.905.523 1.609.087.287.096.361.103.82.007.49.003.53-.146 1.3l-.154.797-.447.27-.446.27-.344-.009-.343-.01-.08.284-.081.284-.766.13c-.421.073-.829.155-.906.185-.209.08-.506.312-.577.451-.083.163-.13.35-.335 1.36-.097.473-.202.93-.235 1.015-.125.33-.924 1.647-1.215 2.005-.112.137-.145.201-.135.262.008.044.139.553.291 1.13.152.578.269 1.059.259 1.069-.01.01-.147-.035-.304-.1-.158-.066-.293-.113-.3-.106-.008.008.02.148.062.313.042.164.097.388.122.498l.047.2-.637-.015a22.742 22.742 0 0 1-1.456-.098c-.451-.047-.941-.093-1.089-.103-.273-.018-.784.036-1.283.137-.197.04-.548.052-1.752.064l-1.505.014zm1.22.306c1.208-.163 3.203-.38 3.532-.385.184-.002.355.02.588.08.18.044.5.095.71.112.712.057 1.06.072 1.06.046 0-.014-.067-.235-.148-.49l-.146-.465-.224-.069c-.191-.058-.243-.063-.35-.032-.252.072-.524.094-1.562.127-1.653.053-2.172.055-2.334.009-.102-.03-.342-.038-.852-.032l-.71.01-.259.567c-.242.53-.286.647-.244.647.01 0 .431-.056.938-.125zm6.3-1.118c0-.037-.228-.802-.384-1.288-.02-.066-.054-.119-.074-.119-.042 0-.205.163-.206.207 0 .016.065.28.146.585l.148.555.13.05c.164.063.24.066.24.01zm-7.098-.24c.123-.078.178-.15.326-.42.098-.18.179-.348.179-.374 0-.026-.03-.074-.065-.106-.056-.05-.07-.053-.096-.013-.071.11-.536.915-.553.96-.029.074.046.058.209-.047zm3.284-.489c.1-.295.184-.552.185-.571 0-.02-.067-.06-.15-.09-.2-.076-.215-.094-.153-.189.044-.066.077-.08.195-.08.246 0 .745-.063 1.001-.126.135-.034.355-.12.49-.192.455-.246.475-.255.539-.235.107.034.114.138.017.239-.103.108-.665.389-1.102.55-.4.149-.416.158-.471.264-.046.09-.144.67-.144.857v.102l.607-.023c.918-.036.79.02 1.32-.57.773-.862 1.024-1.193 1.68-2.217.448-.7.537-.891.632-1.37.044-.222.117-.492.163-.6.23-.546.33-.975.266-1.141-.036-.096-.09-.1-.248-.02-.418.214-1.063.806-1.348 1.237-.189.287-.226.324-.62.613-.628.462-.7.53-.919.862l-.201.306-.31.164-.31.164h-2.021l-.48-.16-.48-.162-.746-.667c-.85-.759-.727-.584-1.216-1.719-.262-.61-.288-.655-.557-.982-.234-.285-.388-.611-.593-1.254-.11-.343-.188-.54-.206-.522-.074.074-.216.78-.251 1.246-.053.708-.02 1.05.209 2.123.162.759.071.618 1.005 1.561.993 1.002 1.399 1.503 2.179 2.688l.22.336.3.022c.165.012.47.04.679.062.208.022.44.037.517.035l.138-.004zm-2.275.431c0-.04-.252-.383-.28-.383-.035 0-.193.353-.173.385.02.033.453.032.453-.002zm3.123-2.835c.55-.136.656-.196.848-.483.123-.185.309-.358.92-.857.164-.134.454-.416.645-.627.436-.482 1.089-1.086 1.383-1.28.492-.326 1.282-.657 2.102-.882.217-.06.473-.117.568-.127a.638.638 0 0 0 .216-.053c.086-.068-.029-.465-.173-.595-.088-.08-.219-.122-.527-.169-.156-.023-.304-.064-.334-.092-.03-.027-.088-.172-.127-.321-.048-.183-.1-.304-.16-.37l-.088-.099h-.905l-.534.262c-1.117.547-1.38.726-2.026 1.382-.459.466-.541.518-.612.386-.07-.131-.018-.392.14-.698.161-.31.161-.31-.043-.37-.238-.071-.388-.071-.599 0-.243.08-.786.364-1.068.557-.207.141-.275.15-.238.032.057-.179.445-.517.83-.723.15-.081.16-.092.125-.158-.124-.237-.438-.488-.85-.682-.411-.193-.563-.244-.802-.27a7.055 7.055 0 0 1-.3-.038c-.096-.016-.102-.021-.044-.043.037-.014.26-.043.497-.064.417-.038.435-.037.627.033.109.04.378.161.598.271.31.155.44.24.576.378.162.163.185.176.282.158.181-.034.416.04.668.208.262.175.31.177.432.017.195-.257.229-.43.182-.94-.032-.352-.108-.826-.15-.936-.013-.035.022-.018.097.048a.55.55 0 0 0 .145.102c.037 0 .337-.47.43-.674.097-.212.125-.464.077-.7-.082-.405-.253-.56-.974-.88-.462-.206-.508-.245-.898-.756-.359-.471-.48-.558-1.028-.74-.513-.17-1.504-.35-1.921-.35-.428 0-.985.256-1.44.662-.376.334-.546.414-1.214.568-.643.148-.764.2-.963.412-.267.286-.386.663-.351 1.117.02.256.07.49.104.49.011 0 .149-.125.307-.277a3.553 3.553 0 0 1 1.462-.87c.394-.125.594-.146 1.374-.147.72 0 .921.036.418.074-.511.04-1.493.262-2.03.46-.357.131-.409.162-.472.279-.03.055-.197.257-.37.449-.507.559-.66.865-.66 1.325 0 .182.017.273.073.394.063.135.077.232.1.678.02.431.039.567.11.789.161.512.482 1.057.814 1.384l.172.17.326-.237c.39-.283.654-.448.678-.423.01.01-.145.235-.344.5-.514.686-.48.616-.421.843.057.225.139.39.381.775.418.663.77 1.044 1.168 1.266.219.123 1.259.492 1.531.545.253.048.898.006 1.26-.083zm-6.724-3.755c.016-.03.046-.133.067-.228.056-.25.304-1.13.38-1.349.06-.175.061-.194.014-.325-.043-.12-.047-.234-.03-.771.016-.436.01-.73-.017-.947-.046-.376-.073-.457-.15-.457-.081 0-.548.232-.613.305-.097.11-.306.597-.378.882-.06.24-.07.367-.07.895-.002.645.032.874.168 1.136.37.713.49.915.543.915.032 0 .07-.025.086-.056zm14.746-1.248c.125-.093.245-.19.267-.217.022-.026.112-.437.2-.912l.162-.864-.052-.464c-.065-.589-.222-1.21-.41-1.626-.214-.477-.213-.465-.4-3.43l-.033-.536-.123-.174c-.068-.095-.304-.436-.524-.757-.788-1.144-.901-1.297-.984-1.328a4.238 4.238 0 0 0-.44-.093c-.47-.08-.924-.08-1.253.002a2.218 2.218 0 0 1-.416.063c-.129 0-.216.027-.402.123-.131.068-.239.113-.239.1 0-.012-.098-.13-.22-.26-.24-.262-.748-.616-1.144-.798a7.287 7.287 0 0 0-.718-.252c-.339-.101-.537-.18-.646-.254-.087-.06-.378-.328-.646-.598l-.489-.49h-.442c-.506 0-1.426.054-1.6.093-.298.067-1.138.818-1.62 1.45l-.25.327-.331.14c-.455.194-.862.327-1.06.347-.156.016-.185.007-.507-.167-.66-.354-.703-.373-.908-.386l-.194-.012-.756.385c-1.386.708-1.941 1.019-2.137 1.194-.14.127-.4.637-.48.944-.057.217-.118 2.227-.09 2.956l.019.505-.208.71c-.115.39-.275.93-.356 1.198-.14.462-.148.51-.15.868-.002.422.104 1.135.203 1.363.035.079.1.159.162.196.183.112.334.113.859.006.54-.11.7-.12.799-.051.037.026.148.174.246.328.175.277.18.282.325.302.158.02.808-.03.924-.073.067-.025.07-.042.074-.513.003-.312.025-.596.062-.794.037-.204.046-.322.026-.347a.719.719 0 0 1-.07-.165 12.12 12.12 0 0 0-.367-.789c-.4-.81-.416-.866-.367-1.253.077-.603.215-.938.562-1.365.113-.139.227-.293.254-.343.056-.104.106-.414.219-1.356.089-.746.099-.792.344-1.566l.193-.607c.014-.044-.052-.089-.337-.228-.328-.162-.37-.174-.578-.174-.49 0-1.135.242-1.43.537-.176.176-.18.184-.356.635-.138.353-.232.531-.279.531-.102 0-.034-.373.192-1.056l.104-.316.379-.195c.675-.35 1.45-.61 1.96-.662.256-.025.4.045.678.328l.21.214-.236.662c-.13.365-.287.826-.35 1.025l-.113.363-.013.741c-.006.408 0 .82.016.917a.848.848 0 0 1 .016.212c-.007.02-.141.14-.299.265-.45.359-.809.818-.88 1.126-.031.14.014.45.101.682.11.292.648 1.151.721 1.151.014 0 .079-.081.145-.18.155-.236.447-.522.728-.713l.223-.152.086-.305c.165-.585.388-.913.778-1.145a1.79 1.79 0 0 0 .219-.141.54.54 0 0 0-.122-.074c-.296-.151-.762-.691-.963-1.115-.215-.457-.251-.916-.1-1.3.286-.733.638-1.073 1.243-1.2.438-.094 1.143-.034 1.508.128.25.11.438.274.595.517.396.612.456 1.171.19 1.769-.057.13-.101.24-.097.245.005.005.205-.08.446-.187.418-.188.451-.198.73-.21.313-.013.814.043 1.522.171.526.095.658.138.854.28a.958.958 0 0 0 .18.111c.012 0 .024-.259.026-.576.007-1.104.19-1.502.855-1.846a2.25 2.25 0 0 1 1.019-.282c.301-.015.348-.01.523.062.232.095.475.248.705.445.094.08.184.147.198.147.015 0 .019-.103.008-.229-.01-.126-.021-.44-.025-.697l-.006-.47.259-.14.258-.14.388.093c.214.051.585.139.825.194l.436.101.166.258c.318.493.768 1.267.805 1.383.027.086.028.134.003.181-.061.115-.028.155-.577-.692l-.296-.457-.708-.23c-.389-.126-.747-.23-.795-.229-.078.001-.1.026-.18.198-.168.359-.266 1.046-.248 1.732.013.452-.015.392.404.893.27.321.738.994.846 1.214.086.175.086.178.097.97l.01.796-.18.293c-.394.643-.6.863-.96 1.023-.261.117-.285.147-.285.375 0 .108.009.238.02.29l.018.095.557-.004c.465-.003.584.006.723.054.09.032.178.082.194.11.015.03.042.174.06.32.039.324.06.347.406.421.254.055.409.137.651.344.12.103.125.104.52.121.22.01.426.02.457.024.031.003.159-.07.284-.162zm-5.255-.676c.083-.048.303-.157.488-.24.423-.192.442-.222.461-.75l.014-.366-.152-.272c-.084-.15-.163-.27-.176-.265-.033.012-.682.834-.788 1-.076.118-.09.174-.09.347 0 .293.036.633.066.633.014 0 .094-.04.177-.087zm1.545-1.746.332-.13.156-.24c.325-.503.444-.834.487-1.35l.021-.258-.424-.689a64.571 64.571 0 0 1-.51-.839c-.049-.083-.11-.15-.139-.15-.029 0-.195.146-.37.324-.283.287-.356.343-.664.502-.41.21-.714.31-.95.31-.095 0-.344-.043-.553-.096-.21-.053-.387-.09-.395-.082-.03.03.056.142.222.294.126.115.242.184.435.257a5.33 5.33 0 0 1 1.05.596c.244.188.271.241.293.571.018.287.02.293.164.473.08.1.216.285.303.41.086.124.17.226.183.226.015 0 .176-.058.359-.13zm-1.611-3.18c.388-.224.556-.653.39-.997-.09-.186-.386-.472-.594-.574-.148-.072-.219-.087-.415-.086-.277 0-.403.055-.655.281-.154.14-.342.448-.318.522.007.018.101-.03.211-.107.25-.177.45-.23.666-.177.518.124.788.693.52 1.09a.789.789 0 0 0-.077.126c0 .04.129.003.272-.079zm-7.836-.27c-.018-.293.042-.472.227-.674a.704.704 0 0 1 .57-.256c.248 0 .47.101.625.286l.116.139v-.113c.001-.17-.082-.416-.2-.586-.227-.33-.676-.426-1.083-.234-.667.316-.917 1.198-.45 1.591.054.046.124.083.155.083.05 0 .054-.025.04-.237zm8.867-.357c.105-.193.18-.478.18-.684 0-.525-.383-1.151-.856-1.404-.17-.09-.235-.106-.484-.12a1.53 1.53 0 0 0-.853.166c-.288.139-.497.325-.596.53-.085.176-.157.524-.14.673l.01.09.2-.188c.245-.234.401-.317.682-.365a1.398 1.398 0 0 1 1.459.76c.055.113.131.329.17.481.077.31.09.313.228.06zm-1.447.102c.112-.113.026-.29-.123-.253-.115.029-.144.169-.05.245.087.07.11.071.173.008zm-8.168-.33c.159-.62.617-1.047 1.22-1.14a.903.903 0 0 1 .45.015c.352.087.545.26.755.676.046.091.096.166.111.166.078 0 .088-.388.02-.746-.148-.773-.662-1.145-1.535-1.109-.3.013-.36.025-.541.115-.273.134-.575.453-.734.776-.109.22-.12.268-.133.563-.012.273-.003.354.055.527.075.22.213.432.255.39.014-.015.049-.12.077-.232zm1.882.106c.08-.072.073-.157-.019-.217-.141-.093-.284.053-.191.195.057.088.13.095.21.022z" transform="translate(-.442 -1.766)"/><path style="fill:none;fill-opacity:1;stroke:none;stroke-width:.331115" d="M11.531 26.186c.246-.556.278-.639.252-.664-.01-.01-.143.018-.294.064-.15.045-.28.076-.289.068-.007-.008.201-.388.464-.846.263-.457.478-.854.478-.881 0-.028-.373-.43-.83-.896-1.227-1.253-1.23-1.255-1.314-1.493a8.644 8.644 0 0 0-.21-.512c-.117-.263-.138-.339-.138-.515 0-.204-.084-.624-.23-1.15-.072-.262-.076-.268-.197-.308a.619.619 0 0 1-.178-.09c-.03-.028-.224-.395-.43-.816-.426-.866-.406-.845-.734-.759-.287.075-.464.084-.895.042l-.409-.04-.13-.233c-.185-.327-.207-.336-.737-.288-.373.033-.468.032-.728-.013-.35-.06-.58-.13-.63-.19-.08-.095-.35-1.53-.352-1.862-.002-.322.124-.747.498-1.684l.269-.674.059-1.313c.097-2.163.152-2.935.219-3.111.037-.099.448-.467.723-.649.285-.188 1.287-.688 2.365-1.178 1.07-.488 1.006-.486 1.694-.05.274.173.513.315.531.315.018 0 .324-.139.679-.308l.645-.307.333-.394c.183-.217.425-.487.538-.6a3.56 3.56 0 0 1 1.101-.726L13.971 4h.54c.438 0 .585.012.79.064.258.066.532.182.532.226 0 .013.096.073.213.132.117.06.516.335.888.613.371.278.762.547.867.598.106.051.437.174.735.273l.543.18.275.317.274.318.166-.018a5.66 5.66 0 0 0 .658-.164l.492-.147.45.031c.247.017.653.064.902.104.373.061.46.085.492.138.022.035.256.44.521.9s.567.97.67 1.134c.15.239.194.337.215.489.03.215.081 1.204.122 2.367l.028.788.109.284c.103.269.31.905.523 1.609.087.287.096.361.103.82.007.49.003.53-.146 1.3l-.154.797-.447.27-.446.27-.344-.009-.343-.01-.08.284-.081.284-.766.13c-.421.073-.829.155-.906.185-.209.08-.506.312-.577.451-.083.163-.13.35-.335 1.36-.097.473-.202.93-.235 1.015-.125.33-.924 1.647-1.215 2.005-.112.137-.145.201-.135.262.008.044.139.553.291 1.13.152.578.269 1.059.259 1.069-.01.01-.147-.035-.304-.1-.158-.066-.293-.113-.3-.106-.008.008.02.148.062.313.042.164.097.388.122.498l.047.2-.637-.015a22.742 22.742 0 0 1-1.456-.098c-.451-.047-.941-.093-1.089-.103-.273-.018-.784.036-1.283.137-.197.04-.548.052-1.752.064l-1.505.014zm1.22.306c1.208-.163 3.203-.38 3.532-.385.184-.002.355.02.588.08.18.044.5.095.71.112.712.057 1.06.072 1.06.046 0-.014-.067-.235-.148-.49l-.146-.465-.224-.069c-.191-.058-.243-.063-.35-.032-.252.072-.524.094-1.562.127-1.653.053-2.172.055-2.334.009-.102-.03-.342-.038-.852-.032l-.71.01-.259.567c-.242.53-.286.647-.244.647.01 0 .431-.056.938-.125zm6.3-1.118c0-.037-.228-.802-.384-1.288-.02-.066-.054-.119-.074-.119-.042 0-.205.163-.206.207 0 .016.065.28.146.585l.148.555.13.05c.164.063.24.066.24.01zm-7.098-.24c.123-.078.178-.15.326-.42.098-.18.179-.348.179-.374 0-.026-.03-.074-.065-.106-.056-.05-.07-.053-.096-.013-.071.11-.536.915-.553.96-.029.074.046.058.209-.047zm3.284-.489c.1-.295.184-.552.185-.571 0-.02-.067-.06-.15-.09-.2-.076-.215-.094-.153-.189.044-.066.077-.08.195-.08.246 0 .745-.063 1.001-.126.135-.034.355-.12.49-.192.455-.246.475-.255.539-.235.107.034.114.138.017.239-.103.108-.665.389-1.102.55-.4.149-.416.158-.471.264-.046.09-.144.67-.144.857v.102l.607-.023c.918-.036.79.02 1.32-.57.773-.862 1.024-1.193 1.68-2.217.448-.7.537-.891.632-1.37.044-.222.117-.492.163-.6.23-.546.33-.975.266-1.141-.036-.096-.09-.1-.248-.02-.418.214-1.063.806-1.348 1.237-.189.287-.226.324-.62.613-.628.462-.7.53-.919.862l-.201.306-.31.164-.31.164h-2.021l-.48-.16-.48-.162-.746-.667c-.85-.759-.727-.584-1.216-1.719-.262-.61-.288-.655-.557-.982-.234-.285-.388-.611-.593-1.254-.11-.343-.188-.54-.206-.522-.074.074-.216.78-.251 1.246-.053.708-.02 1.05.209 2.123.162.759.071.618 1.005 1.561.993 1.002 1.399 1.503 2.179 2.688l.22.336.3.022c.165.012.47.04.679.062.208.022.44.037.517.035l.138-.004zm-2.275.431c0-.04-.252-.383-.28-.383-.035 0-.193.353-.173.385.02.033.453.032.453-.002zm3.123-2.835c.55-.136.656-.196.848-.483.123-.185.309-.358.92-.857.164-.134.454-.416.645-.627.436-.482 1.089-1.086 1.383-1.28.492-.326 1.282-.657 2.102-.882.217-.06.473-.117.568-.127a.638.638 0 0 0 .216-.053c.086-.068-.029-.465-.173-.595-.088-.08-.219-.122-.527-.169-.156-.023-.304-.064-.334-.092-.03-.027-.088-.172-.127-.321-.048-.183-.1-.304-.16-.37l-.088-.099h-.905l-.534.262c-1.117.547-1.38.726-2.026 1.382-.459.466-.541.518-.612.386-.07-.131-.018-.392.14-.698.161-.31.161-.31-.043-.37-.238-.071-.388-.071-.599 0-.243.08-.786.364-1.068.557-.207.141-.275.15-.238.032.057-.179.445-.517.83-.723.15-.081.16-.092.125-.158-.124-.237-.438-.488-.85-.682-.411-.193-.563-.244-.802-.27a7.055 7.055 0 0 1-.3-.038c-.096-.016-.102-.021-.044-.043.037-.014.26-.043.497-.064.417-.038.435-.037.627.033.109.04.378.161.598.271.31.155.44.24.576.378.162.163.185.176.282.158.181-.034.416.04.668.208.262.175.31.177.432.017.195-.257.229-.43.182-.94-.032-.352-.108-.826-.15-.936-.013-.035.022-.018.097.048a.55.55 0 0 0 .145.102c.037 0 .337-.47.43-.674.097-.212.125-.464.077-.7-.082-.405-.253-.56-.974-.88-.462-.206-.508-.245-.898-.756-.359-.471-.48-.558-1.028-.74-.513-.17-1.504-.35-1.921-.35-.428 0-.985.256-1.44.662-.376.334-.546.414-1.214.568-.643.148-.764.2-.963.412-.267.286-.386.663-.351 1.117.02.256.07.49.104.49.011 0 .149-.125.307-.277a3.553 3.553 0 0 1 1.462-.87c.394-.125.594-.146 1.374-.147.72 0 .921.036.418.074-.511.04-1.493.262-2.03.46-.357.131-.409.162-.472.279-.03.055-.197.257-.37.449-.507.559-.66.865-.66 1.325 0 .182.017.273.073.394.063.135.077.232.1.678.02.431.039.567.11.789.161.512.482 1.057.814 1.384l.172.17.326-.237c.39-.283.654-.448.678-.423.01.01-.145.235-.344.5-.514.686-.48.616-.421.843.057.225.139.39.381.775.418.663.77 1.044 1.168 1.266.219.123 1.259.492 1.531.545.253.048.898.006 1.26-.083zm-6.724-3.755c.016-.03.046-.133.067-.228.056-.25.304-1.13.38-1.349.06-.175.061-.194.014-.325-.043-.12-.047-.234-.03-.771.016-.436.01-.73-.017-.947-.046-.376-.073-.457-.15-.457-.081 0-.548.232-.613.305-.097.11-.306.597-.378.882-.06.24-.07.367-.07.895-.002.645.032.874.168 1.136.37.713.49.915.543.915.032 0 .07-.025.086-.056zm14.746-1.248c.125-.093.245-.19.267-.217.022-.026.112-.437.2-.912l.162-.864-.052-.464c-.065-.589-.222-1.21-.41-1.626-.214-.477-.213-.465-.4-3.43l-.033-.536-.123-.174c-.068-.095-.304-.436-.524-.757-.788-1.144-.901-1.297-.984-1.328a4.238 4.238 0 0 0-.44-.093c-.47-.08-.924-.08-1.253.002a2.218 2.218 0 0 1-.416.063c-.129 0-.216.027-.402.123-.131.068-.239.113-.239.1 0-.012-.098-.13-.22-.26-.24-.262-.748-.616-1.144-.798a7.287 7.287 0 0 0-.718-.252c-.339-.101-.537-.18-.646-.254-.087-.06-.378-.328-.646-.598l-.489-.49h-.442c-.506 0-1.426.054-1.6.093-.298.067-1.138.818-1.62 1.45l-.25.327-.331.14c-.455.194-.862.327-1.06.347-.156.016-.185.007-.507-.167-.66-.354-.703-.373-.908-.386l-.194-.012-.756.385c-1.386.708-1.941 1.019-2.137 1.194-.14.127-.4.637-.48.944-.057.217-.118 2.227-.09 2.956l.019.505-.208.71c-.115.39-.275.93-.356 1.198-.14.462-.148.51-.15.868-.002.422.104 1.135.203 1.363.035.079.1.159.162.196.183.112.334.113.859.006.54-.11.7-.12.799-.051.037.026.148.174.246.328.175.277.18.282.325.302.158.02.808-.03.924-.073.067-.025.07-.042.074-.513.003-.312.025-.596.062-.794.037-.204.046-.322.026-.347a.719.719 0 0 1-.07-.165 12.12 12.12 0 0 0-.367-.789c-.4-.81-.416-.866-.367-1.253.077-.603.215-.938.562-1.365.113-.139.227-.293.254-.343.056-.104.106-.414.219-1.356.089-.746.099-.792.344-1.566l.193-.607c.014-.044-.052-.089-.337-.228-.328-.162-.37-.174-.578-.174-.49 0-1.135.242-1.43.537-.176.176-.18.184-.356.635-.138.353-.232.531-.279.531-.102 0-.034-.373.192-1.056l.104-.316.379-.195c.675-.35 1.45-.61 1.96-.662.256-.025.4.045.678.328l.21.214-.236.662c-.13.365-.287.826-.35 1.025l-.113.363-.013.741c-.006.408 0 .82.016.917a.848.848 0 0 1 .016.212c-.007.02-.141.14-.299.265-.45.359-.809.818-.88 1.126-.031.14.014.45.101.682.11.292.648 1.151.721 1.151.014 0 .079-.081.145-.18.155-.236.447-.522.728-.713l.223-.152.086-.305c.165-.585.388-.913.778-1.145a1.79 1.79 0 0 0 .219-.141.54.54 0 0 0-.122-.074c-.296-.151-.762-.691-.963-1.115-.215-.457-.251-.916-.1-1.3.286-.733.638-1.073 1.243-1.2.438-.094 1.143-.034 1.508.128.25.11.438.274.595.517.396.612.456 1.171.19 1.769-.057.13-.101.24-.097.245.005.005.205-.08.446-.187.418-.188.451-.198.73-.21.313-.013.814.043 1.522.171.526.095.658.138.854.28a.958.958 0 0 0 .18.111c.012 0 .024-.259.026-.576.007-1.104.19-1.502.855-1.846a2.25 2.25 0 0 1 1.019-.282c.301-.015.348-.01.523.062.232.095.475.248.705.445.094.08.184.147.198.147.015 0 .019-.103.008-.229-.01-.126-.021-.44-.025-.697l-.006-.47.259-.14.258-.14.388.093c.214.051.585.139.825.194l.436.101.166.258c.318.493.768 1.267.805 1.383.027.086.028.134.003.181-.061.115-.028.155-.577-.692l-.296-.457-.708-.23c-.389-.126-.747-.23-.795-.229-.078.001-.1.026-.18.198-.168.359-.266 1.046-.248 1.732.013.452-.015.392.404.893.27.321.738.994.846 1.214.086.175.086.178.097.97l.01.796-.18.293c-.394.643-.6.863-.96 1.023-.261.117-.285.147-.285.375 0 .108.009.238.02.29l.018.095.557-.004c.465-.003.584.006.723.054.09.032.178.082.194.11.015.03.042.174.06.32.039.324.06.347.406.421.254.055.409.137.651.344.12.103.125.104.52.121.22.01.426.02.457.024.031.003.159-.07.284-.162zm-5.255-.676c.083-.048.303-.157.488-.24.423-.192.442-.222.461-.75l.014-.366-.152-.272c-.084-.15-.163-.27-.176-.265-.033.012-.682.834-.788 1-.076.118-.09.174-.09.347 0 .293.036.633.066.633.014 0 .094-.04.177-.087zm1.545-1.746.332-.13.156-.24c.325-.503.444-.834.487-1.35l.021-.258-.424-.689a64.571 64.571 0 0 1-.51-.839c-.049-.083-.11-.15-.139-.15-.029 0-.195.146-.37.324-.283.287-.356.343-.664.502-.41.21-.714.31-.95.31-.095 0-.344-.043-.553-.096-.21-.053-.387-.09-.395-.082-.03.03.056.142.222.294.126.115.242.184.435.257a5.33 5.33 0 0 1 1.05.596c.244.188.271.241.293.571.018.287.02.293.164.473.08.1.216.285.303.41.086.124.17.226.183.226.015 0 .176-.058.359-.13zm-1.611-3.18c.388-.224.556-.653.39-.997-.09-.186-.386-.472-.594-.574-.148-.072-.219-.087-.415-.086-.277 0-.403.055-.655.281-.154.14-.342.448-.318.522.007.018.101-.03.211-.107.25-.177.45-.23.666-.177.518.124.788.693.52 1.09a.789.789 0 0 0-.077.126c0 .04.129.003.272-.079zm-7.836-.27c-.018-.293.042-.472.227-.674a.704.704 0 0 1 .57-.256c.248 0 .47.101.625.286l.116.139v-.113c.001-.17-.082-.416-.2-.586-.227-.33-.676-.426-1.083-.234-.667.316-.917 1.198-.45 1.591.054.046.124.083.155.083.05 0 .054-.025.04-.237zm8.867-.357c.105-.193.18-.478.18-.684 0-.525-.383-1.151-.856-1.404-.17-.09-.235-.106-.484-.12a1.53 1.53 0 0 0-.853.166c-.288.139-.497.325-.596.53-.085.176-.157.524-.14.673l.01.09.2-.188c.245-.234.401-.317.682-.365a1.398 1.398 0 0 1 1.459.76c.055.113.131.329.17.481.077.31.09.313.228.06zm-1.447.102c.112-.113.026-.29-.123-.253-.115.029-.144.169-.05.245.087.07.11.071.173.008zm-8.168-.33c.159-.62.617-1.047 1.22-1.14a.903.903 0 0 1 .45.015c.352.087.545.26.755.676.046.091.096.166.111.166.078 0 .088-.388.02-.746-.148-.773-.662-1.145-1.535-1.109-.3.013-.36.025-.541.115-.273.134-.575.453-.734.776-.109.22-.12.268-.133.563-.012.273-.003.354.055.527.075.22.213.432.255.39.014-.015.049-.12.077-.232zm1.882.106c.08-.072.073-.157-.019-.217-.141-.093-.284.053-.191.195.057.088.13.095.21.022z" transform="translate(-.442 -1.766)"/></svg>